<?xml version="1.0" encoding="UTF-8" standalone="no"?>
<!-- Created with Inkscape (http://www.inkscape.org/) -->

<svg
   xmlns:dc="http://purl.org/dc/elements/1.1/"
   xmlns:cc="http://creativecommons.org/ns#"
   xmlns:rdf="http://www.w3.org/1999/02/22-rdf-syntax-ns#"
   xmlns:svg="http://www.w3.org/2000/svg"
   xmlns="http://www.w3.org/2000/svg"
   xmlns:sodipodi="http://sodipodi.sourceforge.net/DTD/sodipodi-0.dtd"
   xmlns:inkscape="http://www.inkscape.org/namespaces/inkscape"
   width="250"
   height="200"
   viewBox="0 0 250 200"
   id="svg4408"
   version="1.1"
   inkscape:version="0.91 r13725"
   sodipodi:docname="blobup.svg">
  <defs
     id="defs4410" />
  <sodipodi:namedview
     id="base"
     pagecolor="#ffffff"
     bordercolor="#666666"
     borderopacity="1.0"
     inkscape:pageopacity="0.0"
     inkscape:pageshadow="2"
     inkscape:zoom="2.8401997"
     inkscape:cx="80.122483"
     inkscape:cy="98.873575"
     inkscape:document-units="px"
     inkscape:current-layer="layer1"
     showgrid="false"
     inkscape:window-width="1440"
     inkscape:window-height="810"
     inkscape:window-x="0"
     inkscape:window-y="1"
     inkscape:window-maximized="1"
     units="px" />
  <metadata
     id="metadata4413">
    <rdf:RDF>
      <cc:Work
         rdf:about="">
        <dc:format>image/svg+xml</dc:format>
        <dc:type
           rdf:resource="http://purl.org/dc/dcmitype/StillImage" />
        <dc:title />
      </cc:Work>
    </rdf:RDF>
  </metadata>
  <g
     inkscape:label="Layer 1"
     inkscape:groupmode="layer"
     id="layer1"
     transform="translate(0,-852.36216)">
    <path
       style="fill:#f1f0e9;fill-opacity:1;fill-rule:evenodd;stroke:none;stroke-width:1px;stroke-linecap:butt;stroke-linejoin:miter;stroke-opacity:1"
       d="m 164.73239,1052.3622 c 1.11823,-19.8754 15.81866,-26.606 4.14041,-47.185 -5.41583,-9.54364 -35.09654,-24.48891 -26.64888,-49.29625 7.43944,-21.84662 -22.83819,-49.05426 2.81903,-69.01304 13.63603,-10.60749 56.28804,-14.58366 69.84489,4.92924 5.50457,7.92294 19.46865,15.91708 24.14066,32.05828 3.94989,13.64638 3.18017,41.21557 -1.95768,49.98112 -11.5367,19.68247 -22.81485,19.01601 -27.0984,29.93405 -7.57352,19.3036 10.66868,32.0531 12.61913,48.5916 z"
       id="path5325"
       inkscape:connector-curvature="0"
       sodipodi:nodetypes="cssssssscc" />
    <path
       style="fill:#f1f0e9;fill-opacity:1;fill-rule:evenodd;stroke:none;stroke-width:1px;stroke-linecap:butt;stroke-linejoin:miter;stroke-opacity:1"
       d="m 59.827668,1052.3622 c -16.708168,-19.1799 -4.244777,-22.6253 -4.915072,-41.7034 1.475759,-20.81462 17.448175,-2.3156 35.915295,-12.67902 18.423949,-10.33915 13.434049,-28.23815 33.565329,-21.82945 28.94385,9.21415 -10.30066,27.21597 3.17023,42.95767 7.46823,8.7272 12.11637,29.9943 2.12337,33.2542 z"
       id="path5325-4"
       inkscape:connector-curvature="0"
       sodipodi:nodetypes="ccssscc" />
    <path
       style="fill:#f1f0e9;fill-opacity:1;fill-rule:evenodd;stroke:none;stroke-width:1px;stroke-linecap:butt;stroke-linejoin:miter;stroke-opacity:1"
       d="m 9.6884527,1052.3622 c -11.4268487,-19.1799 -6.9537043,-10.6076 -1.7462807,-28.6241 13.238609,-45.80231 53.131632,24.8722 27.605431,28.6241 z"
       id="path5325-4-8"
       inkscape:connector-curvature="0"
       sodipodi:nodetypes="cscc" />
  </g>
</svg>
